<svg xmlns="http://www.w3.org/2000/svg" xmlns:xlink="http://www.w3.org/1999/xlink" width="48" height="48"><rect width="100%" height="100%" fill="none"/><defs><path d="M24 0C10.75 0 0 10.75 0 24s10.75 24 24 24 24-10.75 24-24S37.25 0 24 0Z" id="a"/><path d="M35.36 14.97c-2.2-.66-11.08-.91-11.08-.91s-8.88-.25-11.11.28a3.523 3.523 0 0 0-2.58 2.44c-.66 2.2-.79 6.82-.79 6.82s-.13 4.62.4 6.85a3.523 3.523 0 0 0 2.44 2.58c2.2.66 11.08.91 11.08.91s8.88.25 11.11-.28a3.523 3.523 0 0 0 2.58-2.44c.66-2.2.79-6.82.79-6.82s.13-4.62-.4-6.85a3.523 3.523 0 0 0-2.44-2.58Z" id="b"/><path d="m21.04 28.18.24-8.52 7.26 4.47-7.5 4.05Z" id="c"/></defs><g class="currentLayer"><g><use xlink:href="#a" fill="#fff"/><use xlink:href="#a" fill-opacity="0" stroke="#000" stroke-opacity="0"/><use xlink:href="#b" fill="#282828"/><use xlink:href="#b" fill-opacity="0" stroke="#000" stroke-opacity="0"/><use xlink:href="#c" fill="#fff"/><use xlink:href="#c" fill-opacity="0" stroke="#000" stroke-opacity="0"/></g></g></svg>