<svg xmlns="http://www.w3.org/2000/svg" xmlns:xlink="http://www.w3.org/1999/xlink" width="48" height="48"><rect width="100%" height="100%" fill="none"/><defs><path d="M24 0C10.75 0 0 10.75 0 24s10.75 24 24 24 24-10.75 24-24S37.25 0 24 0Z" id="a"/><path d="m26.63 18.56 1.12.71.93.94.72 1.11.45 1.26.16 1.37-.16 1.37-.45 1.26-.7 1.12-.93.93-1.12.72-1.27.46-1.38.16-1.38-.16-1.27-.45-1.12-.71-.93-.93-.7-1.12-.45-1.26-.16-1.39.16-1.38.45-1.27.72-1.11.93-.93 1.12-.71 1.26-.45 1.37-.16 1.37.16 1.26.46Zm-5.35 2.67-.83 1.23-.3 1.49.3 1.5.83 1.22 1.23.83 1.49.31 1.49-.31 1.23-.83.83-1.22.3-1.5-.3-1.49-.83-1.23-1.23-.82L24 20.1l-1.49.31-1.23.82Z" id="b"/><path d="M30.25 16.44c-.75 0-1.36.61-1.36 1.36 0 .75.61 1.36 1.36 1.36.75 0 1.36-.61 1.36-1.36 0-.75-.61-1.36-1.36-1.36Z" id="c"/><path d="m29.57 12.38.35.04.35.05.34.07.33.08.33.1.32.12.3.13.3.14.29.16.28.17.27.19.26.2.25.22.23.23.22.23.21.25.2.25.18.27.17.27.15.29.14.29.13.31.11.31.1.32.08.33.07.34.05.34.04.36.02.35.01.37v9.68l-.01.37-.02.37-.04.36-.05.36-.07.34-.08.34-.1.33-.12.32-.13.31-.14.3-.16.29-.17.28-.19.27-.2.26-.22.24-.23.24-.23.21-.25.2-.25.19-.27.18-.27.16-.29.15-.3.14-.3.12-.32.11-.32.1-.34.08-.34.07-.35.05-.36.04-.36.02-.38.01h-9.58l-.36-.01-.35-.02-.35-.03-.34-.05-.33-.07-.33-.08-.32-.09-.31-.11-.31-.12-.29-.14-.29-.15-.28-.16-.27-.18-.26-.19-.25-.21-.25-.22-.24-.25-.22-.25-.21-.26-.19-.28-.18-.28-.16-.3-.15-.3-.13-.31-.11-.32-.1-.33-.09-.34-.07-.35-.05-.35-.04-.36-.02-.37-.01-.38v-9.63l.03-.75.1-.71.15-.68.21-.65.27-.6.32-.56.37-.52.42-.47.47-.42.52-.37.56-.32.6-.27.65-.21.68-.15.71-.1.75-.03h9.68l.37.01.36.02Zm-10.68 2.14-.32.02-.3.04-.3.05-.29.07-.28.08-.27.09-.26.11-.24.12-.23.14-.22.15-.21.16-.19.18-.19.2-.17.22-.16.22-.14.23-.13.25-.11.25-.1.27-.08.27-.07.29-.05.29-.04.31-.02.31-.01.32v9.63l.01.33.02.32.04.31.05.3.07.29.08.28.1.27.11.26.13.25.14.23.16.22.17.22.19.2.2.18.21.16.23.15.23.14.25.12.25.11.27.09.27.08.29.07.29.05.31.04.31.02.32.01h9.58l.32-.01.31-.02.31-.04.29-.05.29-.07.27-.08.27-.09.25-.11.25-.12.23-.14.23-.15.21-.16.2-.18.13-.14.12-.15.12-.18.12-.2.11-.22.11-.24.11-.26.1-.29.09-.31.1-.32.09-.36.08-.37.08-.39v-9.68l-.01-.31-.02-.3-.04-.3-.06-.29-.07-.28-.08-.27-.1-.26-.12-.26-.13-.24-.14-.23-.15-.23-.17-.21-.18-.2-.2-.19-.21-.17-.22-.16-.24-.14-.24-.13-.26-.11-.26-.1-.28-.08-.28-.07-.3-.05-.3-.04-.31-.02-.32-.01h-9.68l-.32.01Z" id="d"/></defs><g class="currentLayer"><g class="selected"><use xlink:href="#a" fill="#fff"/><use xlink:href="#a" fill-opacity="0" stroke="#000" stroke-opacity="0"/><use xlink:href="#b"/><use xlink:href="#b" fill-opacity="0" stroke="#000" stroke-opacity="0"/><use xlink:href="#c"/><use xlink:href="#c" fill-opacity="0" stroke="#000" stroke-opacity="0"/><use xlink:href="#d"/><use xlink:href="#d" fill-opacity="0" stroke="#000" stroke-opacity="0"/></g></g></svg>