<svg width="28" height="26" xmlns="http://www.w3.org/2000/svg"><path d="m5.105 25.788-4.996-6.64a.544.544 0 0 1 .1-.756l2.942-2.281a.525.525 0 0 1 .744.1l4.996 6.642a.544.544 0 0 1-.1.755L5.85 25.889a.525.525 0 0 1-.744-.1M9.555 22 5 15.902s1.406-1.763 2.278-2.399c.871-.635 2.137-1.473 3.599-1.502 1.462-.03 3.234.982 3.571 1.069.338.087 1.462.636 3.684.636 2.221 0 3.177.086 3.233 1.098.057 1.011-.562 1.647-1.293 1.705-.731.058-6.608.491-6.608.491s3.824.492 5.118.347c1.293-.144 2.7-.231 3.233-.982.535-.752.45-1.474.394-2.081 0 0 2.812-1.705 3.487-1.908.675-.202 1.575-.52 1.996.116.422.636.563 1.127-.59 2.11-1.153.982-2.84 2.34-4.106 3.092-1.265.751-2.587 1.59-3.627 1.965-1.04.376-3.909.376-5.82.491-1.913.116-3.994 1.85-3.994 1.85m8.229-10.374s6.855-4.13 6.855-8.04c0-3.909-6.083-4.21-6.855-.3-.773-3.91-6.856-3.609-6.856.601s6.856 7.74 6.856 7.74Z" fill="#FFF" fill-rule="evenodd"/></svg>